<svg width="29" height="29" viewBox="0 0 29 29" fill="none" xmlns="http://www.w3.org/2000/svg">
<ellipse cx="14.25" cy="14.5" rx="14.25" ry="14.5" fill="#F4F3F6"/>
<path d="M19.5621 10.6414C19.4885 10.5659 19.4009 10.506 19.3045 10.4651C19.208 10.4242 19.1045 10.4031 19 10.4031C18.8955 10.4031 18.792 10.4242 18.6955 10.4651C18.5991 10.506 18.5115 10.5659 18.4379 10.6414L12.54 16.6508L10.0621 14.1214C9.98567 14.0463 9.89547 13.9872 9.79662 13.9476C9.69778 13.9079 9.59223 13.8885 9.48601 13.8904C9.37978 13.8923 9.27496 13.9154 9.17752 13.9585C9.08008 14.0016 8.99194 14.0638 8.91813 14.1415C8.84431 14.2193 8.78627 14.3111 8.74732 14.4116C8.70837 14.5122 8.68926 14.6196 8.6911 14.7277C8.69294 14.8358 8.71568 14.9425 8.75803 15.0416C8.80038 15.1408 8.8615 15.2304 8.93792 15.3056L11.9779 18.3989C12.0515 18.4744 12.1391 18.5343 12.2355 18.5752C12.332 18.6161 12.4355 18.6372 12.54 18.6372C12.6445 18.6372 12.748 18.6161 12.8445 18.5752C12.9409 18.5343 13.0285 18.4744 13.1021 18.3989L19.5621 11.8256C19.6424 11.7501 19.7066 11.6586 19.7504 11.5567C19.7943 11.4548 19.8169 11.3447 19.8169 11.2335C19.8169 11.1222 19.7943 11.0122 19.7504 10.9103C19.7066 10.8084 19.6424 10.7168 19.5621 10.6414V10.6414Z" fill="#198754"/>
</svg>
