<svg width="30" height="25" viewBox="0 0 30 25" fill="none" xmlns="http://www.w3.org/2000/svg">
<path d="M29.5 12.5C29.5 19.0459 23.0974 24.5 15 24.5C6.90264 24.5 0.5 19.0459 0.5 12.5C0.5 5.95407 6.90264 0.5 15 0.5C23.0974 0.5 29.5 5.95407 29.5 12.5Z" fill="#F4F3F6" stroke="black"/>
<path d="M20.5916 9.17362C20.5142 9.10853 20.422 9.05686 20.3205 9.02161C20.2189 8.98635 20.11 8.9682 20 8.9682C19.89 8.9682 19.781 8.98635 19.6795 9.02161C19.5779 9.05686 19.4858 9.10853 19.4083 9.17362L13.2 14.3542L10.5916 12.1736C10.5112 12.1089 10.4163 12.058 10.3122 12.0238C10.2082 11.9896 10.0971 11.9729 9.98525 11.9745C9.87343 11.9761 9.76309 11.996 9.66052 12.0332C9.55796 12.0703 9.46518 12.1239 9.38748 12.191C9.30978 12.258 9.24868 12.3371 9.20768 12.4238C9.16668 12.5105 9.14657 12.6031 9.1485 12.6963C9.15044 12.7895 9.17438 12.8814 9.21896 12.9669C9.26353 13.0524 9.32788 13.1297 9.40831 13.1944L12.6083 15.8611C12.6858 15.9262 12.7779 15.9779 12.8795 16.0131C12.981 16.0484 13.09 16.0665 13.2 16.0665C13.31 16.0665 13.4189 16.0484 13.5205 16.0131C13.622 15.9779 13.7142 15.9262 13.7916 15.8611L20.5916 10.1944C20.6762 10.1294 20.7437 10.0505 20.7899 9.96265C20.8361 9.8748 20.8599 9.77994 20.8599 9.68403C20.8599 9.58813 20.8361 9.49326 20.7899 9.40542C20.7437 9.31757 20.6762 9.23865 20.5916 9.17362V9.17362Z" fill="#198754"/>
</svg>
